<svg width="27" height="29" viewBox="0 0 27 29" fill="none" xmlns="http://www.w3.org/2000/svg">
<path d="M22.2278 15.3798C22.1943 11.7275 25.5037 9.94732 25.6577 9.86777C23.782 7.37176 20.8746 7.02917 19.8496 7.0047C17.4045 6.77226 15.0397 8.33838 13.7937 8.33838C12.5276 8.33838 10.6116 7.02917 8.54165 7.06591C5.88209 7.10258 3.39675 8.50968 2.03685 10.6876C-0.776762 15.1351 1.32007 21.6687 4.01978 25.2659C5.36624 27.0278 6.94058 28.9916 9.0039 28.9243C11.0203 28.8509 11.7773 27.7497 14.209 27.7497C16.6207 27.7497 17.3308 28.9243 19.4343 28.8815C21.5981 28.8509 22.9647 27.1134 24.2643 25.3393C25.8252 23.3205 26.4482 21.3323 26.475 21.2344C26.4214 21.2038 22.268 19.7539 22.2278 15.3798ZM18.2553 4.63717C19.3405 3.3953 20.0841 1.71295 19.8764 0C18.3089 0.0611438 16.3393 0.991031 15.2139 2.20237C14.2158 3.27294 13.318 5.02257 13.5526 6.66824C15.3077 6.78446 17.1231 5.85457 18.2553 4.63717Z" fill="black"/>
</svg>
