<svg width="117" height="32" viewBox="0 0 117 32" fill="none" xmlns="http://www.w3.org/2000/svg">
<path d="M108.83 13.2749V10.7432H108.046V10.1829H110.245V10.7432H109.473V13.2749H108.83ZM110.564 13.2749V10.1829H111.186L112.344 11.7185H112.054L113.179 10.1829H113.801V13.2749H113.158V10.8926L113.415 10.9507L112.224 12.4864H112.141L110.991 10.9507L111.207 10.8926V13.2749H110.564Z" fill="white"/>
<g clip-path="url(#clip0_24_10042)">
<path d="M26.3829 10.0959C26.1564 9.89184 25.8387 9.79908 25.5277 9.8465C25.2162 9.89374 24.9472 10.0751 24.8027 10.3354C24.3057 11.2309 23.6745 12.0538 22.9318 12.7813C23.0058 12.2558 23.0431 11.7271 23.0431 11.1971C23.0431 10.18 22.8961 9.1334 22.6061 8.08592C21.6527 4.64537 19.1525 1.73574 15.7468 0.103142C15.4503 -0.0389493 15.097 -0.0339604 14.8053 0.116445C14.5136 0.266913 14.3226 0.54278 14.2964 0.851352C14.0309 3.97797 12.2945 6.8225 9.52981 8.65742C9.49322 8.68188 9.4569 8.70664 9.42057 8.73127C9.34534 8.78233 9.27441 8.83062 9.20814 8.87115C9.19778 8.87755 9.18749 8.88408 9.17739 8.89079C7.43861 10.0454 6.00391 11.5846 5.0282 13.3424C4.03675 15.1303 3.53406 17.0489 3.53406 19.0448C3.53406 20.0615 3.68101 21.1082 3.97088 22.1558C5.50055 27.6779 10.8585 31.5346 17.0004 31.5346C24.4253 31.5346 30.4659 25.9317 30.4659 19.0448C30.4659 15.6486 29.0159 12.4705 26.3829 10.0959Z" fill="#BBF245"/>
<ellipse cx="16" cy="18.5498" rx="4" ry="3.70997" fill="black"/>
</g>
<path d="M46.5864 26.0904C47.6223 26.0904 48.5387 25.9149 49.3356 25.5638C50.1324 25.1942 50.7401 24.6399 51.1584 23.9008V25.7578H55.342V10.6249H50.8596V19.4663C50.8596 20.3347 50.5807 21.0369 50.0229 21.5727C49.4651 22.0901 48.7479 22.3487 47.8713 22.3487C46.9948 22.3487 46.2776 22.0901 45.7198 21.5727C45.1619 21.0369 44.883 20.3347 44.883 19.4663V10.6249H40.4006V19.7989C40.4006 21.6836 40.9286 23.2079 41.9844 24.372C43.0602 25.5176 44.5942 26.0904 46.5864 26.0904Z" fill="white"/>
<path d="M58.6181 9.26681H63.1005V5.10942H58.6181V9.26681ZM58.6181 25.7578H63.1005V10.6249H58.6181V25.7578Z" fill="white"/>
<path d="M68.3529 25.7578H72.8353V14.228H76.3316V10.6249H72.8353V10.4032C72.8353 9.05432 73.682 8.3799 75.3753 8.3799C75.6542 8.3799 75.9829 8.40761 76.3614 8.46305V4.9154C75.9032 4.82302 75.3753 4.77682 74.7777 4.77682C72.7456 4.77682 71.1618 5.26647 70.0263 6.24577C68.9107 7.22507 68.3529 8.61087 68.3529 10.4032V10.6249H65.6037V14.228H68.3529V25.7578Z" fill="white"/>
<path d="M78.6372 25.7578H83.1196V17.6093C83.1196 16.4822 83.4583 15.6138 84.1356 15.004C84.813 14.3758 85.6995 14.0617 86.7952 14.0617H88.1997V10.4586H87.2434C86.2473 10.4586 85.3608 10.6341 84.5838 10.9852C83.8268 11.3178 83.2391 11.9553 82.8208 12.8976V10.6249H78.6372V25.7578Z" fill="white"/>
<path d="M92.7042 31.9107C95.6925 31.9107 97.854 30.3309 99.1888 27.1713L106.181 10.6249H101.37L97.5154 20.3532L93.6605 10.6249H88.8494L95.2742 25.7578L94.9753 26.3953C94.7363 26.8942 94.4275 27.3376 94.049 27.7256C93.6704 28.1137 93.0429 28.3077 92.1664 28.3077C91.4492 28.3077 90.7718 28.2153 90.1343 28.0305V31.4396C90.473 31.6059 90.8615 31.726 91.2998 31.7999C91.758 31.8738 92.2261 31.9107 92.7042 31.9107Z" fill="white"/>
<defs>
<clipPath id="clip0_24_10042">
<rect width="34" height="31.5347" fill="white"/>
</clipPath>
</defs>
</svg>
