<svg width="1440" height="1417" viewBox="0 0 1440 1417" fill="none" xmlns="http://www.w3.org/2000/svg">
<g opacity="0.5" filter="url(#filter0_f_11_4)">
<circle cx="1381.5" cy="708.5" r="184.5" fill="#BBF245"/>
</g>
<path opacity="0.4" d="M46.2353 676.527C91.1769 721.469 118.349 775.646 125.966 826.894C133.582 878.143 121.643 926.431 88.4065 959.667C55.1705 992.903 6.88219 1004.84 -44.3663 997.227C-95.6146 989.61 -149.792 962.438 -194.734 917.496C-239.675 872.554 -266.848 818.377 -274.464 767.128C-282.081 715.88 -270.141 667.592 -236.905 634.356C-203.669 601.12 -155.381 589.18 -104.132 596.796C-52.8839 604.413 1.29365 631.585 46.2353 676.527Z" stroke="white" stroke-opacity="0.56" stroke-width="0.863108"/>
<path opacity="0.4" d="M62.6909 663.687C145.561 746.557 152.642 873.696 78.6743 947.664C4.70624 1021.63 -122.432 1014.55 -205.303 931.681C-288.173 848.811 -295.254 721.672 -221.286 647.704C-147.318 573.736 -20.1792 580.817 62.6909 663.687Z" stroke="white" stroke-opacity="0.56"/>
<circle cx="90.5101" cy="957.5" r="2.5" fill="#D9D9D9"/>
<defs>
<filter id="filter0_f_11_4" x="673" y="0" width="1417" height="1417" filterUnits="userSpaceOnUse" color-interpolation-filters="sRGB">
<feFlood flood-opacity="0" result="BackgroundImageFix"/>
<feBlend mode="normal" in="SourceGraphic" in2="BackgroundImageFix" result="shape"/>
<feGaussianBlur stdDeviation="262" result="effect1_foregroundBlur_11_4"/>
</filter>
</defs>
</svg>
